<svg width="154" height="85" viewBox="0 0 154 85" fill="none" xmlns="http://www.w3.org/2000/svg">
<path d="M147.91 80.312V82.286C147.91 82.8927 147.775 83.3127 147.504 83.546C147.233 83.7794 146.757 83.896 146.076 83.896H144.802L144.564 82.706H145.656C145.927 82.706 146.123 82.6827 146.244 82.636C146.375 82.5894 146.459 82.5147 146.496 82.412C146.543 82.3094 146.566 82.1554 146.566 81.95V80.368L142.058 80.522L141.876 79.43C143.201 79.0753 144.536 78.5947 145.88 77.988L142.814 78.142L142.646 77.302C143.775 76.826 144.83 76.2427 145.81 75.552H142.562V77.022H141.218V74.418H146.314V73.326H141.582V72.178H146.314V71.114H147.658V72.178H152.432V73.326H147.658V74.418H152.782V77.05H151.424V75.552H147.518C146.575 76.2614 145.745 76.7934 145.026 77.148L147.756 77.05C148.512 76.6207 149.119 76.238 149.576 75.902L150.416 76.798C149.091 77.6754 147.355 78.5387 145.208 79.388L149.898 79.15C149.907 79.1593 149.819 79.0847 149.632 78.926C149.259 78.618 149.063 78.4594 149.044 78.45L149.884 77.68L150.864 78.492C151.863 79.3227 152.469 79.8267 152.684 80.004L151.97 80.942L151.732 80.718C151.657 80.6527 151.569 80.578 151.466 80.494C151.373 80.41 151.261 80.312 151.13 80.2L147.91 80.312ZM145.068 81.656C144.499 82.0387 143.873 82.4213 143.192 82.804C142.511 83.1773 141.862 83.504 141.246 83.784L140.742 82.622C141.358 82.3607 142.016 82.0434 142.716 81.67C143.425 81.2874 144.009 80.9327 144.466 80.606L145.068 81.656ZM149.282 80.648C149.963 80.9747 151.275 81.6374 153.216 82.636L152.642 83.742C152.054 83.4247 151.363 83.0654 150.57 82.664C149.786 82.2534 149.156 81.936 148.68 81.712L149.282 80.648Z" fill="white" fill-opacity="0.6"/>
<path d="M138.852 83.98C137.937 83.7933 137.135 83.5927 136.444 83.378C135.763 83.1727 135.142 82.93 134.582 82.65C133.574 83.1073 132.155 83.56 130.326 84.008L129.934 82.776C131.371 82.5053 132.51 82.2207 133.35 81.922C132.631 81.418 131.866 80.704 131.054 79.78V78.716H134.106V77.666H131.012V72.486C131.703 72.3273 132.51 72.0753 133.434 71.73L133.896 72.78C133.289 73.032 132.711 73.2327 132.16 73.382V74.446H133.644V75.454H132.16V76.602H134.106V71.184H135.324V76.602H137.312V75.454H135.758V74.446H137.312V73.284H135.73V72.262H138.488V77.666H135.324V78.716H138.194V79.766C137.485 80.6713 136.724 81.39 135.912 81.922C136.733 82.23 137.839 82.4913 139.23 82.706L138.852 83.98ZM130.592 77.792L129.444 78.324V82.426C129.444 82.7993 129.397 83.084 129.304 83.28C129.22 83.476 129.066 83.6113 128.842 83.686C128.627 83.77 128.31 83.812 127.89 83.812H127.022L126.798 82.552H127.54C127.829 82.552 128.016 82.5147 128.1 82.44C128.184 82.356 128.226 82.1927 128.226 81.95V78.87L126.952 79.43L126.798 78.03C127.069 77.9273 127.545 77.7267 128.226 77.428V74.964H126.896V73.662H128.226V71.254H129.444V73.662H130.536V74.964H129.444V76.868C129.584 76.812 129.915 76.658 130.438 76.406L130.592 77.792ZM132.706 79.78C133.341 80.4427 133.985 80.9607 134.638 81.334C135.291 80.9793 135.949 80.4613 136.612 79.78H132.706Z" fill="white" fill-opacity="0.6"/>
<path d="M124.544 72.528V76.812H115.542C115.514 78.1933 115.369 79.3833 115.108 80.382C114.856 81.3807 114.417 82.5007 113.792 83.742L112.644 82.93C113.064 82.118 113.381 81.39 113.596 80.746C113.82 80.0927 113.979 79.402 114.072 78.674C114.165 77.946 114.212 77.0547 114.212 76V72.528H118.804L118.454 71.534L118.328 71.184L119.756 70.946L119.868 71.268C119.98 71.5853 120.134 72.0053 120.33 72.528H124.544ZM115.542 75.58H123.186V73.732H115.542V75.58ZM117.264 84.036H115.934V78.352H124.264V84.036H122.906V83.224H117.264V84.036ZM122.906 82.048V79.57H117.264V82.048H122.906Z" fill="white" fill-opacity="0.6"/>
<path d="M111.244 76.826V78.17H108.374V83.882H106.96V78.17H103.278C103.231 79.1033 103.11 79.8873 102.914 80.522C102.718 81.1473 102.41 81.7307 101.99 82.272C101.579 82.8133 100.982 83.4247 100.198 84.106L99.134 83.07C99.8434 82.5007 100.385 81.9873 100.758 81.53C101.131 81.0727 101.397 80.592 101.556 80.088C101.724 79.5747 101.831 78.9353 101.878 78.17H98.756V76.826H101.906V73.242H99.344V71.94H110.684V73.242H108.374V76.826H111.244ZM103.32 76.826H106.96V73.242H103.32V76.826Z" fill="white" fill-opacity="0.6"/>
<path d="M90.8601 75.706C90.5801 75.1553 90.2254 74.4927 89.7961 73.718C89.3667 72.934 89.0074 72.318 88.7181 71.87L89.7961 71.17C90.2907 71.9353 91.0327 73.214 92.0221 75.006L90.8601 75.706ZM96.2221 83.672C95.7741 83.056 94.9947 82.076 93.8841 80.732C93.4827 81.32 92.9647 81.88 92.3301 82.412C91.6954 82.9347 90.8927 83.4854 89.9221 84.064L89.1241 82.846C90.3934 82.1367 91.3594 81.4274 92.0221 80.718C92.6941 80.0087 93.1701 79.2154 93.4501 78.338C93.7301 77.4607 93.9261 76.322 94.0381 74.922C94.0847 74.3807 94.1127 73.2094 94.1221 71.408H95.4801V72.346C95.4801 73.6713 95.4614 74.5627 95.4241 75.02C95.3587 75.972 95.2607 76.798 95.1301 77.498C95.0087 78.198 94.8314 78.8327 94.5981 79.402C95.3541 80.2793 96.2361 81.3527 97.2441 82.622L96.2221 83.672ZM90.4401 77.75L91.0421 79.15L86.2121 83.336L85.3021 82.09C85.4701 81.922 85.5774 81.782 85.6241 81.67C85.6801 81.558 85.7081 81.4087 85.7081 81.222V71.702H87.1221V80.592L90.4401 77.75Z" fill="white" fill-opacity="0.6"/>
<path d="M74.8301 79.612C74.4381 79.248 74.0834 78.9214 73.7661 78.632V83.938H72.5201V78.94C72.1001 79.9574 71.6707 80.788 71.2321 81.432L70.6721 80.172C71.0081 79.6307 71.3394 79.0194 71.6661 78.338C71.9927 77.6474 72.2774 76.966 72.5201 76.294H70.8821V75.006H72.5201V73.354L71.1061 73.55L70.9941 72.346C71.6007 72.2807 72.3054 72.1827 73.1081 72.052C73.9107 71.912 74.6201 71.772 75.2361 71.632L75.4181 72.836C75.0261 72.9293 74.4754 73.0414 73.7661 73.172V75.006H75.2501V75.412C75.6234 74.8427 75.9687 74.194 76.2861 73.466C76.6034 72.7287 76.8601 71.982 77.0561 71.226L78.3301 71.436C78.2461 71.772 78.0921 72.2667 77.8681 72.92H82.9361V74.18L81.8301 76.434L80.6681 76L81.5781 74.18H77.3501C77.0327 74.8987 76.6361 75.6593 76.1601 76.462L75.2501 75.622V76.294H73.7661V77.092C74.6714 77.8574 75.2547 78.366 75.5161 78.618L74.8301 79.612ZM78.4421 75.202H79.7301V82.328C79.7301 82.8694 79.6041 83.252 79.3521 83.476C79.1094 83.7 78.7034 83.812 78.1341 83.812H76.8321L76.5941 82.524H77.6021C77.9381 82.524 78.1621 82.4774 78.2741 82.384C78.3861 82.2907 78.4421 82.104 78.4421 81.824V75.202ZM81.4101 77.036C81.7274 77.8107 82.0727 78.6927 82.4461 79.682C82.8287 80.6713 83.1181 81.432 83.3141 81.964L82.2221 82.454C81.6621 80.858 81.0367 79.22 80.3461 77.54L81.4101 77.036ZM77.6161 77.456C77.3827 78.2867 77.0887 79.1594 76.7341 80.074C76.3794 80.9794 76.0201 81.7727 75.6561 82.454L74.5081 81.936C74.8441 81.348 75.1941 80.606 75.5581 79.71C75.9314 78.8047 76.2441 77.9367 76.4961 77.106L77.6161 77.456Z" fill="white" fill-opacity="0.6"/>
<path d="M68.1241 78.072V84.022H66.8081V83.168H60.5921V84.022H59.2761V79.388C58.7347 79.5747 58.0394 79.7893 57.1901 80.032L56.7001 78.828C58.9307 78.2493 60.8161 77.5447 62.3561 76.714C63.9054 75.874 65.2307 74.894 66.3321 73.774H61.2641C61.0774 73.97 60.8814 74.166 60.6761 74.362L62.4821 75.748L61.6141 76.728L61.2781 76.462C60.4381 75.79 59.9154 75.3747 59.7101 75.216C59.1501 75.6733 58.5667 76.1027 57.9601 76.504L57.1341 75.384C58.0207 74.8613 58.9027 74.1893 59.7801 73.368C60.6667 72.5373 61.3807 71.744 61.9221 70.988L63.2241 71.352C63.0094 71.6787 62.7247 72.0707 62.3701 72.528H68.0961V73.774C67.3214 74.6607 66.4767 75.4587 65.5621 76.168C64.6474 76.868 63.6114 77.5027 62.4541 78.072H68.1241ZM60.5921 79.29V81.978H66.8081V79.29H60.5921Z" fill="white" fill-opacity="0.6"/>
<path d="M51.268 71.268V73.186H54.474V84.008H53.172V83.182H44.842V84.008H43.54V73.186H46.732V71.268H48.048V73.186H49.952V71.268H51.268ZM46.732 77.512V74.474H44.842V77.512H46.732ZM49.952 77.512V74.474H48.048V77.512H49.952ZM53.172 77.512V74.474H51.268V77.512H53.172ZM46.732 78.772H44.842V81.922H46.732V78.772ZM49.952 81.922V78.772H48.048V81.922H49.952ZM51.268 78.772V81.922H53.172V78.772H51.268Z" fill="white" fill-opacity="0.6"/>
<path d="M35.3221 75.986C36.1621 74.4927 36.7921 72.836 37.2121 71.016L38.4301 71.24C38.3181 71.7813 38.1547 72.374 37.9401 73.018H41.1461V74.222L40.2221 76.658L39.1301 76.266L39.9701 74.208H37.5061C37.1047 75.2627 36.6894 76.1307 36.2601 76.812L35.3221 75.986ZM35.0001 76.658H33.7961V72.864H28.9521V71.716H35.9101V72.864H35.0001V76.658ZM32.8861 73.69V76.294H29.4561V73.69H32.8861ZM31.8921 74.572H30.4641V75.426H31.8921V74.572ZM40.5441 83.938C39.4614 82.8087 38.6774 81.4927 38.1921 79.99C37.9587 80.7553 37.6274 81.4647 37.1981 82.118C36.7781 82.7713 36.2461 83.406 35.6021 84.022L34.9021 83.084C34.8087 83.3547 34.6314 83.546 34.3701 83.658C34.1181 83.77 33.7401 83.826 33.2361 83.826H31.9761L31.7521 82.664H32.9561C33.2081 82.664 33.3901 82.6407 33.5021 82.594C33.6234 82.538 33.7027 82.4493 33.7401 82.328C33.7867 82.2067 33.8101 82.02 33.8101 81.768V78.226H28.7841V77.12H36.1061V78.226H35.0141V82.202C35.0141 82.4353 35.0001 82.636 34.9721 82.804C35.8867 81.9453 36.5354 81.026 36.9181 80.046C37.3101 79.066 37.5154 77.89 37.5341 76.518L37.5481 75.006H38.6961L38.6821 76.406L38.6681 77.05C38.7427 78.2913 38.9947 79.374 39.4241 80.298C39.8627 81.222 40.4974 82.0667 41.3281 82.832L40.5441 83.938ZM29.3861 79.122H32.8721V82.02H29.3861V79.122ZM30.3941 81.194H31.8641V79.962H30.3941V81.194Z" fill="white" fill-opacity="0.6"/>
<path d="M21.6441 73.102C21.8587 75.1273 22.4047 76.9147 23.2821 78.464C24.1687 80.0133 25.4987 81.3947 27.2721 82.608L26.2641 83.868C24.8827 82.8133 23.7674 81.7073 22.9181 80.55C22.0781 79.3833 21.4434 78.03 21.0141 76.49C20.0994 79.15 18.3121 81.5953 15.6521 83.826L14.6581 82.636C18.0181 80.0227 19.9221 76.9473 20.3701 73.41C20.2954 73.27 20.1694 73.172 19.9921 73.116C19.8241 73.0507 19.5767 73.018 19.2501 73.018H17.3741V71.59H19.7681C20.3654 71.59 20.8134 71.7113 21.1121 71.954C21.4107 72.1873 21.5881 72.57 21.6441 73.102Z" fill="white" fill-opacity="0.6"/>
<path d="M5.02604 79.71L5.09604 80.956L4.04604 81.138V83.994H2.89804V81.334L0.826035 81.698L0.686035 80.424L2.89804 80.06V78.352H0.994035V77.106C1.27404 76.3873 1.5867 75.356 1.93204 74.012H0.854035V72.822H2.22604C2.3847 72.1593 2.50604 71.576 2.59004 71.072L3.71004 71.324C3.63537 71.6973 3.55137 72.052 3.45804 72.388L3.36004 72.822H5.33404V74.012H3.05204C2.66937 75.4213 2.35204 76.476 2.10004 77.176H3.09404V75.23H4.04604V77.176H5.04004V78.352H4.04604V79.878L5.02604 79.71ZM9.60404 71.156C10.0334 71.856 10.5654 72.5047 11.2 73.102C11.8347 73.6993 12.53 74.2033 13.286 74.614L12.712 75.762C12.18 75.4447 11.62 75.0387 11.032 74.544V75.384H6.94404V74.698C6.46804 75.0993 5.94537 75.4773 5.37604 75.832L4.70404 74.726C5.57204 74.2127 6.3047 73.6713 6.90204 73.102C7.49937 72.5327 8.0267 71.884 8.48404 71.156H9.60404ZM10.794 74.334C10.0567 73.6713 9.47804 73.0133 9.05804 72.36C8.61004 73.0507 8.04537 73.7087 7.36404 74.334H10.794ZM11.522 76H12.558V82.44C12.558 82.8133 12.5114 83.098 12.418 83.294C12.334 83.49 12.18 83.6253 11.956 83.7C11.7414 83.784 11.4287 83.826 11.018 83.826H9.87004L9.66004 82.734H10.682C11.0274 82.734 11.2514 82.692 11.354 82.608C11.466 82.5147 11.522 82.342 11.522 82.09V76ZM5.43204 83.882V76.154H8.96004V82.608C8.96004 83.0653 8.8807 83.3733 8.72204 83.532C8.56337 83.7 8.2647 83.784 7.82604 83.784H7.08404L6.88804 82.762H7.44804C7.6627 82.762 7.79804 82.7293 7.85404 82.664C7.91937 82.5987 7.95204 82.4773 7.95204 82.3V81.25H6.44004V83.882H5.43204ZM9.78604 76.434H10.724V81.586H9.78604V76.434ZM7.95204 78.198V77.148H6.44004V78.198H7.95204ZM6.44004 79.192V80.242H7.95204V79.192H6.44004Z" fill="white" fill-opacity="0.6"/>
<path d="M93.0001 44.9999V46.9999H61.0001V44.9999H93.0001ZM97.0001 40.9999V25.9999C97.0001 23.7907 95.2092 21.9999 93.0001 21.9999H61.0001C58.7909 21.9999 57.0001 23.7907 57.0001 25.9999V40.9999C57.0001 43.209 58.7909 44.9999 61.0001 44.9999V46.9999L60.6915 46.9921C57.6234 46.8366 55.1633 44.3765 55.0079 41.3085L55.0001 40.9999V25.9999C55.0001 22.6862 57.6864 19.9999 61.0001 19.9999H93.0001C96.3138 19.9999 99.0001 22.6862 99.0001 25.9999V40.9999C99.0001 44.2101 96.479 46.8314 93.3087 46.9921L93.0001 46.9999V44.9999C95.2092 44.9999 97.0001 43.209 97.0001 40.9999Z" fill="#F9F9F9" fill-opacity="0.4"/>
<path d="M72.8538 39.2659C72.1165 39.2659 71.5285 39.0699 71.0898 38.6779C70.6511 38.2859 70.4318 37.7585 70.4318 37.0959C70.4318 36.2652 70.7585 35.6352 71.4118 35.2059C72.0651 34.7672 72.9938 34.5479 74.1978 34.5479H75.1778V34.0579C75.1778 33.5819 75.0331 33.2085 74.7438 32.9379C74.4638 32.6579 74.0858 32.5179 73.6098 32.5179C72.9938 32.5179 72.3965 32.7932 71.8178 33.3439L70.8658 32.4479C71.6591 31.5985 72.6158 31.1739 73.7358 31.1739C74.6411 31.1739 75.3598 31.4259 75.8918 31.9299C76.4331 32.4339 76.7038 33.1059 76.7038 33.9459V39.0699H75.1778V38.0479H75.0938C74.8978 38.4212 74.5945 38.7199 74.1838 38.9439C73.7731 39.1585 73.3298 39.2659 72.8538 39.2659ZM73.2178 37.9359C73.5165 37.9359 73.8151 37.8752 74.1138 37.7539C74.4218 37.6325 74.6738 37.4459 74.8698 37.1939C75.0751 36.9325 75.1778 36.6152 75.1778 36.2419V35.8779H74.4358C73.6051 35.8779 72.9891 35.9712 72.5878 36.1579C72.1958 36.3352 71.9998 36.6152 71.9998 36.9979C71.9998 37.2779 72.1071 37.5065 72.3218 37.6839C72.5458 37.8519 72.8445 37.9359 73.2178 37.9359Z" fill="white" fill-opacity="0.4"/>
<path d="M69.6741 39.0699H67.9941L66.8601 35.8359H62.9821L61.8481 39.0699H60.1681L64.1021 28.2479H65.7401L69.6741 39.0699ZM64.8721 30.4459L63.5141 34.3379H66.3281L64.9561 30.4459H64.8721Z" fill="white" fill-opacity="0.4"/>
<path d="M102.903 36.9219C102.575 36.0792 103.445 35.2692 104.262 35.6558L119.231 42.7362C120.051 43.1239 119.959 44.2818 119.161 44.5752L118.992 44.6217L113.12 45.7485C112.744 45.8207 112.441 46.1025 112.342 46.4733L110.803 52.2499C110.554 53.1845 109.256 53.2567 108.905 52.3553L102.903 36.9219ZM109.659 48.7758L110.41 45.9578L110.473 45.7527C110.797 44.8096 111.571 44.0888 112.535 43.8317L112.744 43.7838L115.607 43.2344L105.675 38.5354L109.659 48.7758Z" fill="#6E6E71"/>
<path d="M115.592 0.496423C115.66 0.525313 115.724 0.561654 115.782 0.602988C115.785 0.60509 115.788 0.606816 115.791 0.608953L121.145 4.49588C121.521 4.76884 121.659 5.26445 121.479 5.69248L119.907 9.42906C119.788 9.71092 119.547 9.92278 119.253 10.0046C118.958 10.0864 118.642 10.0298 118.395 9.84942L114.072 6.68843L110.123 16.0753C109.369 17.8669 107.306 18.7083 105.514 17.9549L103.707 17.1945C101.915 16.4407 101.074 14.3774 101.827 12.5857L102.006 12.1608C102.76 10.3693 104.823 9.52787 106.615 10.2813L109.823 11.6308L114.282 1.03045C114.31 0.963126 114.345 0.900382 114.385 0.842925C114.393 0.831872 114.402 0.821788 114.41 0.811083C114.448 0.761646 114.489 0.715537 114.534 0.674709C114.54 0.669554 114.546 0.664992 114.552 0.659971C114.601 0.618325 114.653 0.582232 114.708 0.550823C114.717 0.54609 114.724 0.540157 114.733 0.535656C114.791 0.504406 114.853 0.479659 114.917 0.460559L114.935 0.455436C114.94 0.454069 114.945 0.452269 114.95 0.450979C114.969 0.445755 114.989 0.440991 115.01 0.436984L115.046 0.431097C115.051 0.430266 115.056 0.429946 115.062 0.429197C115.091 0.42488 115.121 0.420967 115.151 0.419361C115.155 0.419192 115.158 0.419306 115.161 0.419168C115.194 0.417748 115.227 0.417439 115.26 0.419276C115.265 0.419578 115.27 0.420444 115.276 0.420834C115.304 0.4229 115.333 0.426828 115.361 0.431415C115.37 0.432743 115.378 0.433042 115.387 0.43458C115.456 0.44747 115.524 0.468102 115.592 0.496423ZM105.839 12.1248C105.066 11.7997 104.175 12.1629 103.85 12.9363L103.671 13.3612C103.346 14.1347 103.709 15.0254 104.482 15.351L106.29 16.1113C107.063 16.4365 107.954 16.0732 108.28 15.2999L109.048 13.4743L105.839 12.1248ZM114.868 4.79448L118.554 7.48787L119.328 5.64703L115.637 2.96804L114.868 4.79448Z" fill="white" fill-opacity="0.4"/>
<path d="M32.6567 6.29339C33.1224 5.99653 33.7406 6.13342 34.0374 6.59913C34.3342 7.06484 34.1974 7.68306 33.7317 7.9799C29.5402 10.6516 28.3082 16.2153 30.98 20.4068C33.6517 24.5982 39.2154 25.8302 43.4069 23.1585C47.5983 20.4868 48.8302 14.9231 46.1586 10.7316C45.5018 9.70118 44.6716 8.85145 43.7316 8.19407C43.6106 8.10945 43.4873 8.02797 43.3628 7.94973L42.9841 7.72442L42.8971 7.66981C42.4827 7.37839 42.3484 6.81452 42.6016 6.36312C42.855 5.91166 43.4064 5.73272 43.8712 5.93487L43.9629 5.98063L44.4267 6.25591C44.579 6.35159 44.7296 6.45099 44.8776 6.5545C46.0294 7.3599 47.0444 8.40052 47.8451 9.6566C51.1105 14.7795 49.6048 21.5796 44.4819 24.845C39.359 28.1105 32.5589 26.6046 29.2934 21.4818C26.028 16.3589 27.5338 9.55884 32.6567 6.29339ZM37.2946 3.33708C37.9251 2.93517 38.6504 2.74126 39.3373 2.79357C40.0243 2.84604 40.7385 3.15865 41.1681 3.83269C41.5977 4.50673 41.5796 5.28614 41.3372 5.93108C41.0946 6.57576 40.6126 7.15146 39.9821 7.55336C39.6914 7.73866 39.3796 7.8767 39.0617 7.96982L42.3639 13.1504L42.4834 13.3487C43.6599 15.4185 43.0183 18.0697 40.9881 19.3639C38.8923 20.6997 36.1105 20.0837 34.7746 17.988C33.4388 15.8923 34.0548 13.1104 36.1505 11.7746C36.9305 11.2773 37.8057 11.0505 38.666 11.0698L35.9742 6.84694C35.8761 6.69297 35.8257 6.52222 35.8186 6.35205C35.7162 5.87536 35.7785 5.3877 35.9395 4.95936C36.182 4.31467 36.6641 3.73899 37.2946 3.33708ZM37.2255 13.4611C36.0612 14.2032 35.719 15.7487 36.4611 16.913C37.2033 18.0773 38.7487 18.4195 39.913 17.6774C41.0773 16.9352 41.4196 15.3897 40.6774 14.2254C39.9353 13.0612 38.3898 12.719 37.2255 13.4611ZM38.3696 5.02359C38.0687 5.21539 37.8875 5.46094 37.8114 5.66313C37.7356 5.86483 37.7796 5.95839 37.7951 5.98273C37.8107 6.00714 37.877 6.08648 38.0917 6.10287C38.3071 6.11927 38.6062 6.05863 38.9071 5.86685C39.208 5.67507 39.3892 5.42949 39.4653 5.22732C39.5411 5.02572 39.4971 4.93214 39.4816 4.90771C39.4661 4.88337 39.3999 4.80398 39.185 4.78757C38.9696 4.77117 38.6705 4.8318 38.3696 5.02359Z" fill="white" fill-opacity="0.4"/>
</svg>
