<svg width="120" height="36" viewBox="0 0 120 36" fill="none" xmlns="http://www.w3.org/2000/svg">
<path d="M36.3978 26.9631C36.4019 29.2782 35.4861 31.5 33.852 33.1398C32.2178 34.7797 29.9992 35.7032 27.6842 35.7072L8.77598 35.7402C6.46094 35.7443 4.23911 34.8285 2.59927 33.1944C0.959429 31.5602 0.0359075 29.3416 0.0318674 27.0266L1.33037e-05 8.77712C-0.00402566 6.46208 0.911748 4.24025 2.54587 2.60041C4.18 0.960573 6.39862 0.0370519 8.71366 0.0330117L27.6219 1.33037e-05C29.9369 -0.00402566 32.1587 0.911748 33.7986 2.54587C35.4384 4.18 36.3619 6.39862 36.366 8.71366L36.3978 26.9631ZM15.3661 22.2183C15.3558 22.1719 15.3372 22.1292 15.3104 22.09C14.7053 21.2168 13.5615 19.5504 11.8792 17.0908C11.5282 16.5774 11.3457 16.0919 11.3457 15.5352C11.3467 13.7683 11.3488 12.4508 11.3519 11.5828C11.355 10.6288 11.2173 9.98242 10.6035 9.35462C10.0066 8.74228 9.03551 8.566 8.20514 8.84279C7.40313 9.10979 6.88305 9.65099 6.64492 10.4664C6.49184 10.9922 6.52586 11.8565 6.5274 12.3653C6.53977 16.0321 6.53926 20.3184 6.52586 25.2244C6.52379 26.2501 6.59853 26.9469 6.75007 27.315C7.10778 28.186 7.75981 28.7468 8.70615 28.9973C8.95149 29.0612 9.38394 29.0932 10.0035 29.0932C10.4519 29.0922 10.889 29.0922 11.3148 29.0932C13.428 29.1004 15.5269 29.0958 17.6113 29.0793C19.27 29.0659 20.474 28.9757 21.2235 28.8087C25.4434 27.8701 28.7695 24.5502 29.6308 20.3396C29.8091 19.4695 29.8905 17.9887 29.8751 15.897C29.8503 12.6848 29.8447 10.7819 29.8581 10.1881C29.8813 9.08092 29.705 8.09747 28.9875 7.37226C28.4318 6.81043 27.8226 6.52694 27.1598 6.52179C25.5434 6.50942 22.6198 6.5089 18.3891 6.52024C17.7757 6.52127 17.349 6.57436 17.1088 6.67951C15.9068 7.20732 15.3001 8.13613 15.2888 9.46595C15.2743 11.2164 15.2687 12.9951 15.2718 14.8023C15.2728 15.3641 15.4269 15.8486 15.7341 16.2558C15.9939 16.598 16.682 17.5975 17.7984 19.2541C17.8087 19.2695 17.9113 19.3958 18.1061 19.6329C18.1226 19.653 18.1436 19.669 18.1673 19.6796C18.1911 19.6902 18.217 19.6951 18.243 19.6939C18.269 19.6926 18.2943 19.6854 18.317 19.6727C18.3397 19.6599 18.3591 19.6421 18.3736 19.6205C19.2324 18.367 19.8993 17.4232 20.3746 16.7893C20.7812 16.248 21.2312 15.6496 21.225 14.8162C21.2219 14.3105 21.2297 13.76 21.2158 12.8694C21.2075 12.2962 21.256 11.8906 21.3611 11.6524C22.091 10.0025 24.5264 10.086 25.046 11.8318C25.1006 12.0143 25.1217 12.6142 25.1094 13.6317C25.1042 14.1327 25.1032 14.5956 25.1063 15.0203C25.1155 15.9079 24.9934 16.4228 24.4862 17.1495C23.6017 18.4185 22.0647 20.6571 19.8751 23.8651C19.2659 24.7574 18.0257 24.9275 17.1196 24.394C16.5258 24.043 15.9954 23.0549 15.4697 22.2817C15.4388 22.2384 15.4042 22.2173 15.3661 22.2183Z" fill="white"/>
<path d="M11.3148 29.0932C11.3065 28.3437 11.4854 27.7036 11.8513 27.1727C12.9605 25.5655 14.0584 23.9512 15.145 22.3296C15.167 22.2976 15.199 22.2737 15.2362 22.2616L15.3661 22.2183C15.4042 22.2173 15.4388 22.2384 15.4697 22.2817C15.9954 23.0549 16.5258 24.043 17.1196 24.394C18.0257 24.9274 19.2659 24.7573 19.8751 23.8651C22.0647 20.6571 23.6017 18.4185 24.4862 17.1495C24.9934 16.4228 25.1155 15.9078 25.1063 15.0203C25.1032 14.5955 25.1042 14.1327 25.1093 13.6317C25.1217 12.6142 25.1006 12.0142 25.0459 11.8318C24.5264 10.086 22.091 10.0025 21.3611 11.6524C21.256 11.8905 21.2075 12.2962 21.2157 12.8693C21.2297 13.76 21.2219 14.3105 21.225 14.8161C21.2312 15.6496 20.7812 16.248 20.3746 16.7892C19.8993 17.4232 19.2324 18.367 18.3736 19.6205C18.3591 19.6421 18.3397 19.6599 18.317 19.6726C18.2943 19.6854 18.269 19.6926 18.243 19.6938C18.217 19.695 18.1911 19.6901 18.1673 19.6796C18.1436 19.669 18.1226 19.653 18.1061 19.6329C17.9113 19.3958 17.8087 19.2695 17.7984 19.254C16.682 17.5974 15.9939 16.598 15.7341 16.2558C15.4269 15.8486 15.2728 15.3641 15.2718 14.8022C15.2687 12.9951 15.2743 11.2163 15.2888 9.46593C15.3001 8.13611 15.9068 7.2073 17.1088 6.67949C17.349 6.57434 17.7757 6.52125 18.3891 6.52022C22.6198 6.50888 25.5433 6.5094 27.1597 6.52177C27.8226 6.52692 28.4318 6.81041 28.9875 7.37223C29.705 8.09745 29.8812 9.0809 29.858 10.1881C29.8446 10.7818 29.8503 12.6848 29.8751 15.897C29.8905 17.9887 29.8091 19.4695 29.6307 20.3396C28.7694 24.5501 25.4433 27.8701 21.2235 28.8087C20.474 28.9757 19.27 29.0659 17.6113 29.0793C15.5269 29.0958 13.428 29.1004 11.3148 29.0932Z" fill="#0B5AFE"/>
<path d="M15.3661 22.2183L15.2362 22.2616C15.199 22.2737 15.1669 22.2976 15.1449 22.3296C14.0584 23.9512 12.9605 25.5655 11.8513 27.1727C11.4853 27.7036 11.3065 28.3437 11.3147 29.0932C10.889 29.0921 10.4519 29.0921 10.0035 29.0932C9.38392 29.0932 8.95147 29.0612 8.70612 28.9973C7.75978 28.7468 7.10776 28.186 6.75004 27.3149C6.59851 26.9469 6.52377 26.25 6.52583 25.2243C6.53923 20.3184 6.53975 16.0321 6.52737 12.3652C6.52583 11.8565 6.49181 10.9921 6.64489 10.4664C6.88303 9.65097 7.4031 9.10976 8.20512 8.84277C9.03548 8.56598 10.0066 8.74226 10.6034 9.35459C11.2173 9.98239 11.3549 10.6287 11.3518 11.5828C11.3488 12.4508 11.3467 13.7683 11.3457 15.5352C11.3457 16.0918 11.5281 16.5774 11.8791 17.0908C13.5615 19.5504 14.7053 21.2168 15.3104 22.09C15.3372 22.1291 15.3557 22.1719 15.3661 22.2183Z" fill="#090909"/>
<path d="M43.1463 8.0366H45.9919L48.6627 17.4002H48.7263L51.397 8.0366H54.2427L50.8088 19.1648H46.5801L43.1463 8.0366ZM59.0713 19.3715C58.1704 19.3715 57.3755 19.186 56.6866 18.8151C56.0084 18.4441 55.4837 17.9195 55.1128 17.2412C54.7419 16.5523 54.5564 15.7416 54.5564 14.8089C54.5564 13.3781 54.9591 12.2812 55.7646 11.5181C56.5701 10.7551 57.6723 10.3735 59.0713 10.3735C60.4596 10.3735 61.5566 10.7551 62.362 11.5181C63.1675 12.2812 63.5702 13.3781 63.5702 14.8089C63.5702 15.7416 63.3848 16.5523 63.0138 17.2412C62.6429 17.9195 62.1183 18.4441 61.44 18.8151C60.7617 19.186 59.9721 19.3715 59.0713 19.3715ZM57.0682 14.8089C57.0682 15.625 57.2537 16.2821 57.6246 16.7802C57.9955 17.2783 58.4778 17.5274 59.0713 17.5274C59.6648 17.5274 60.1417 17.2783 60.502 16.7802C60.873 16.2821 61.0584 15.625 61.0584 14.8089C61.0584 13.961 60.8783 13.3198 60.5179 12.8853C60.1682 12.4402 59.686 12.2176 59.0713 12.2176C58.4566 12.2176 57.969 12.4402 57.6087 12.8853C57.2484 13.3198 57.0682 13.961 57.0682 14.8089ZM67.9095 10.5802V19.1648H65.3659V10.5802H67.9095ZM65.3659 6.93968H67.9095V9.48327H65.3659V6.93968ZM77.1798 18.8786C76.3637 19.2072 75.5265 19.3715 74.668 19.3715C73.7671 19.3715 72.9352 19.1913 72.1721 18.8309C71.4196 18.46 70.8208 17.9407 70.3757 17.273C69.9306 16.5947 69.708 15.8157 69.708 14.9361C69.708 14.014 69.92 13.2086 70.3439 12.5197C70.7678 11.8308 71.3454 11.3062 72.0767 10.9458C72.8186 10.5749 73.6453 10.3894 74.5567 10.3894C75.3834 10.3894 76.2206 10.5378 77.0685 10.8345V12.7899C76.422 12.5144 75.7596 12.3766 75.0813 12.3766C74.2441 12.3766 73.5499 12.578 72.9988 12.9807C72.4477 13.3728 72.1721 14.0246 72.1721 14.9361C72.1721 15.4554 72.3152 15.8952 72.6013 16.2556C72.8875 16.6159 73.2584 16.8915 73.7142 17.0822C74.1699 17.2624 74.6521 17.3525 75.1608 17.3525C75.553 17.3525 75.9239 17.2995 76.2736 17.1935C76.634 17.0769 76.936 16.918 77.1798 16.7166V18.8786ZM86.5795 18.7038C86.1768 18.9475 85.7052 19.1277 85.1646 19.2443C84.6347 19.3609 84.1207 19.4192 83.6226 19.4192C81.9269 19.4192 80.6392 19.0164 79.7595 18.2109C78.8905 17.4055 78.4559 16.2768 78.4559 14.8248C78.4559 13.3834 78.8428 12.2812 79.6164 11.5181C80.4007 10.7445 81.4658 10.3576 82.8118 10.3576C84.1472 10.3576 85.2017 10.7445 85.9754 11.5181C86.7597 12.2812 87.1518 13.3834 87.1518 14.8248C87.1518 14.9838 87.1412 15.2116 87.12 15.5084H80.9359C81.1691 16.8756 82.0646 17.5592 83.6226 17.5592C84.7142 17.5592 85.6999 17.2359 86.5795 16.5894V18.7038ZM84.7513 13.7279C84.6135 13.198 84.3751 12.8058 84.0359 12.5515C83.6968 12.2971 83.2887 12.1699 82.8118 12.1699C82.3667 12.1699 81.9852 12.3024 81.6672 12.5674C81.3599 12.8323 81.1426 13.2192 81.0154 13.7279H84.7513ZM98.4298 8.0366V19.1648H95.8067V14.4592H91.5303V19.1648H88.9072V8.0366H91.5303V12.313H95.8067V8.0366H98.4298ZM106.47 19.1807C106.3 18.8627 106.2 18.5236 106.168 18.1633C105.776 18.513 105.304 18.8045 104.753 19.0376C104.212 19.2602 103.677 19.3715 103.147 19.3715C102.331 19.3715 101.679 19.133 101.192 18.6561C100.715 18.1792 100.477 17.5645 100.477 16.812V10.5802H103.02V16.3827C103.02 16.6901 103.121 16.9445 103.322 17.1458C103.534 17.3366 103.81 17.432 104.149 17.432C104.371 17.432 104.668 17.3525 105.039 17.1935C105.421 17.0345 105.739 16.8597 105.993 16.6689V10.5802H108.537V17.5274C108.537 17.8771 108.558 18.1739 108.6 18.4176C108.643 18.6508 108.727 18.9051 108.855 19.1807H106.47ZM115.109 19.3715C114.177 19.3715 113.376 19.1118 112.709 18.5925C112.656 18.8256 112.592 19.0164 112.518 19.1648H110.133C110.345 18.6879 110.451 18.0255 110.451 17.1776V6.93968H112.995V11.1366C113.313 10.8928 113.652 10.7074 114.012 10.5802C114.383 10.453 114.749 10.3894 115.109 10.3894C115.894 10.3894 116.577 10.5802 117.16 10.9617C117.754 11.3433 118.209 11.8785 118.527 12.5674C118.856 13.2457 119.02 14.0246 119.02 14.9043C119.02 15.7733 118.861 16.547 118.543 17.2253C118.225 17.9036 117.769 18.4335 117.176 18.8151C116.582 19.186 115.894 19.3715 115.109 19.3715ZM112.725 16.5417C112.947 16.9657 113.228 17.2412 113.567 17.3684C113.906 17.4956 114.214 17.5592 114.489 17.5592C114.85 17.5592 115.189 17.4426 115.507 17.2094C115.835 16.9657 116.095 16.6424 116.286 16.2397C116.487 15.8369 116.588 15.3918 116.588 14.9043C116.588 14.4062 116.487 13.9504 116.286 13.5371C116.095 13.1238 115.835 12.8005 115.507 12.5674C115.189 12.3342 114.85 12.2176 114.489 12.2176C114.214 12.2176 113.906 12.2865 113.567 12.4243C113.228 12.5515 112.947 12.8217 112.725 13.2351V16.5417Z" fill="white"/>
<path d="M43.3437 32.4162C43.7238 31.5767 43.9891 30.761 44.1396 29.9691C44.298 29.1692 44.3772 28.2585 44.3772 27.2369V25.8352H53.8685V29.5771H45.767C45.6245 30.6066 45.3908 31.553 45.0661 32.4162H43.3437ZM43.4625 21.9388H48.1309V21.5587H49.7227V21.9388H54.3912V23.3525H49.7227V23.9226H53.7973V25.2887H44.0564V23.9226H48.1309V23.3525H43.4625V21.9388ZM48.4517 28.1278V27.2844H45.8977L45.8858 28.1278H48.4517ZM52.348 28.1278V27.2844H49.9722V28.1278H52.348ZM59.8675 32.3924C60.0813 32.0519 60.2159 31.8301 60.2713 31.7272H55.7217V30.2067H55.983L56.8027 26.6192H55.7217V25.1224H60.4139V26.6192H58.3232L57.5035 30.2067H58.8459L58.6795 28.2229H60.0932L60.3664 31.5609C60.8811 30.6422 61.2573 29.6959 61.4949 28.7218C61.7325 27.7477 61.8513 26.7301 61.8513 25.6689V25.063H60.7227V23.5425H61.8513V21.63H63.3718V23.5425H66.1752V32.3924H63.5975V30.8719H64.6547V25.063H63.3718V25.6689C63.3718 26.9914 63.249 28.1714 63.0035 29.2088C62.758 30.2463 62.3541 31.3075 61.7919 32.3924H59.8675ZM55.9474 22.3427H60.1882V23.8395H55.9474V22.3427ZM78.7195 32.5231C77.3812 32.0479 76.2922 31.4579 75.4528 30.7531C74.6133 31.4738 73.5363 32.0677 72.2217 32.535V30.8838C73.0374 30.5749 73.7145 30.2027 74.253 29.7671C73.564 28.8881 73.1166 27.815 72.9107 26.5479H74.3599C74.5658 27.427 74.9222 28.1833 75.429 28.8168C75.92 28.207 76.2724 27.4507 76.4863 26.5479H77.9474C77.7573 27.7992 77.3218 28.8683 76.6407 29.7553C77.2109 30.2067 77.9038 30.5828 78.7195 30.8838V32.5231ZM67.6126 31.7985C67.7868 30.9353 67.8977 30.0324 67.9452 29.09C67.9927 28.1476 68.0165 26.9993 68.0165 25.6451V24.9086H69.2757L69.2875 27.2488C69.2875 28.1278 69.2638 28.9356 69.2163 29.6721C69.1688 30.4007 69.0816 31.1095 68.9549 31.7985H67.6126ZM67.8264 22.9486H69.4657V21.6656H71.0338V22.9486H72.1385V24.4216H71.0575V25.7758L71.9009 26.4529V28.2466L71.0575 27.5695V32.4162H69.537V24.4216H67.8264V22.9486ZM72.2098 25.0036L74.7994 24.184V25.6451L72.2098 26.4648V25.0036ZM72.3405 22.4378H74.6925V21.4874H76.2368V22.4378H78.4701V23.9345H72.3405V22.4378ZM76.023 24.184L78.6126 25.0036V26.4648L76.023 25.6451V24.184ZM90.3016 32.2736H80.2519V21.8794H90.3016V32.2736ZM88.7692 30.8125V23.3406H81.7843V30.8125H88.7692ZM82.0457 25.9658H88.5079V27.3795H87.0111V28.8287H88.4722V30.2542H85.5856V27.3795H84.9442C84.8254 28.2823 84.5244 28.991 84.0413 29.5058C83.5662 30.0126 82.9247 30.3532 82.1169 30.5274V29.0188C82.9326 28.8049 83.4236 28.2585 83.5899 27.3795H82.0457V25.9658ZM82.5327 23.8276H88.0208V25.2412H82.5327V23.8276Z" fill="white"/>
</svg>
